<mxfile host="app.diagrams.net" agent="Mozilla/5.0 (Macintosh; Intel Mac OS X 10_15_7) AppleWebKit/537.36 (KHTML, like Gecko) Chrome/140.0.0.0 Safari/537.36" version="28.2.5">
  <diagram name="Seite-1" id="ZfH-P737uRzAbcR32g-Z">
    <mxGraphModel dx="2610" dy="988" grid="1" gridSize="10" guides="1" tooltips="1" connect="1" arrows="1" fold="1" page="1" pageScale="1" pageWidth="827" pageHeight="1169" background="#ffffff" math="1" shadow="0">
      <root>
        <mxCell id="0" />
        <mxCell id="1" parent="0" />
        <mxCell id="wkMzzB-yKLCFpXBGOHoM-1" value="&lt;b&gt;Definitions&lt;/b&gt;&lt;div&gt;&lt;ul&gt;&lt;li&gt;(EZ)-Aggregator&lt;/li&gt;&lt;li&gt;Solution&lt;/li&gt;&lt;/ul&gt;&lt;/div&gt;" style="rounded=1;whiteSpace=wrap;html=1;fillColor=#0050ef;fontColor=#ffffff;strokeColor=#001DBC;gradientColor=default;" vertex="1" parent="1">
          <mxGeometry x="350.0022222222222" y="200" width="220" height="80" as="geometry" />
        </mxCell>
        <mxCell id="wkMzzB-yKLCFpXBGOHoM-23" value="" style="edgeStyle=orthogonalEdgeStyle;rounded=0;orthogonalLoop=1;jettySize=auto;html=1;fontFamily=Helvetica;fontSize=12;fontColor=#ffffff;" edge="1" parent="1" source="wkMzzB-yKLCFpXBGOHoM-5" target="wkMzzB-yKLCFpXBGOHoM-1">
          <mxGeometry relative="1" as="geometry" />
        </mxCell>
        <mxCell id="wkMzzB-yKLCFpXBGOHoM-5" value="Interpretation of Parameters for EZ-SDU" style="shape=parallelogram;perimeter=parallelogramPerimeter;whiteSpace=wrap;html=1;fixedSize=1;fillColor=#fa6800;fontColor=#000000;strokeColor=#C73500;rounded=1;" vertex="1" parent="1">
          <mxGeometry x="340.0022222222222" y="50" width="240" height="90" as="geometry" />
        </mxCell>
        <mxCell id="wkMzzB-yKLCFpXBGOHoM-24" value="" style="edgeStyle=orthogonalEdgeStyle;rounded=0;orthogonalLoop=1;jettySize=auto;html=1;fontFamily=Helvetica;fontSize=12;fontColor=#ffffff;exitX=0.5;exitY=1;exitDx=0;exitDy=0;entryX=0.454;entryY=0.024;entryDx=0;entryDy=0;entryPerimeter=0;" edge="1" parent="1" source="wkMzzB-yKLCFpXBGOHoM-6" target="wkMzzB-yKLCFpXBGOHoM-12">
          <mxGeometry relative="1" as="geometry">
            <mxPoint x="237.17111111111132" y="450.0000000000002" as="sourcePoint" />
            <mxPoint x="111.11263157894751" y="625" as="targetPoint" />
          </mxGeometry>
        </mxCell>
        <mxCell id="wkMzzB-yKLCFpXBGOHoM-26" value="" style="edgeStyle=orthogonalEdgeStyle;rounded=0;orthogonalLoop=1;jettySize=auto;html=1;fontFamily=Helvetica;fontSize=12;fontColor=#ffffff;" edge="1" parent="1" source="wkMzzB-yKLCFpXBGOHoM-6" target="wkMzzB-yKLCFpXBGOHoM-19">
          <mxGeometry relative="1" as="geometry">
            <mxPoint x="291.1111111111113" y="410" as="targetPoint" />
          </mxGeometry>
        </mxCell>
        <mxCell id="wkMzzB-yKLCFpXBGOHoM-6" value="&lt;b&gt;Problem&amp;nbsp;&lt;/b&gt;&lt;div&gt;&lt;b&gt;Formulation&lt;/b&gt;&lt;/div&gt;" style="ellipse;whiteSpace=wrap;html=1;fillColor=#0050ef;strokeColor=#001DBC;fontColor=#ffffff;rounded=1;gradientColor=default;" vertex="1" parent="1">
          <mxGeometry x="131.11111111111111" y="370" width="80" height="80" as="geometry" />
        </mxCell>
        <mxCell id="wkMzzB-yKLCFpXBGOHoM-11" value="" style="shape=flexArrow;endArrow=classic;html=1;rounded=0;noEdgeStyle=1;orthogonal=1;" edge="1" parent="1" source="wkMzzB-yKLCFpXBGOHoM-1" target="wkMzzB-yKLCFpXBGOHoM-6">
          <mxGeometry width="50" height="50" relative="1" as="geometry">
            <mxPoint x="390" y="430" as="sourcePoint" />
            <mxPoint x="440" y="380" as="targetPoint" />
            <Array as="points">
              <mxPoint x="169.72222222222223" y="282" />
              <mxPoint x="171.11111111111111" y="358" />
            </Array>
          </mxGeometry>
        </mxCell>
        <mxCell id="wkMzzB-yKLCFpXBGOHoM-37" value="" style="edgeStyle=orthogonalEdgeStyle;rounded=0;orthogonalLoop=1;jettySize=auto;html=1;fontFamily=Helvetica;fontSize=12;fontColor=#ffffff;exitX=0.5;exitY=1;exitDx=0;exitDy=0;" edge="1" parent="1" source="wkMzzB-yKLCFpXBGOHoM-6">
          <mxGeometry relative="1" as="geometry">
            <mxPoint x="171.11000000000013" y="710" as="targetPoint" />
          </mxGeometry>
        </mxCell>
        <mxCell id="wkMzzB-yKLCFpXBGOHoM-12" value="&lt;b&gt;Theorem&lt;/b&gt;&lt;div&gt;&lt;i&gt;Necessary Condition&lt;/i&gt;&lt;/div&gt;&lt;div&gt;&lt;i&gt;for existence of a solution:&lt;/i&gt;&lt;/div&gt;&lt;div&gt;$$ \vartheta &amp;gt; 0$$&lt;/div&gt;" style="shape=hexagon;perimeter=hexagonPerimeter2;whiteSpace=wrap;html=1;fixedSize=1;rounded=1;strokeColor=#001DBC;align=center;verticalAlign=middle;arcSize=8;fontFamily=Helvetica;fontSize=12;fontColor=#ffffff;fillColor=#0050ef;gradientColor=default;" vertex="1" parent="1">
          <mxGeometry x="-80.00000000000001" y="585" width="170" height="80" as="geometry" />
        </mxCell>
        <mxCell id="wkMzzB-yKLCFpXBGOHoM-15" value="\( S \) and \(R\) are always on the same side of unity \( (1) \)" style="ellipse;whiteSpace=wrap;html=1;rounded=1;strokeColor=#001DBC;align=center;verticalAlign=middle;fontFamily=Helvetica;fontSize=12;fontColor=#ffffff;fillColor=#0050ef;gradientColor=default;" vertex="1" parent="1">
          <mxGeometry x="-270" y="560" width="120" height="80" as="geometry" />
        </mxCell>
        <mxCell id="wkMzzB-yKLCFpXBGOHoM-30" value="" style="edgeStyle=orthogonalEdgeStyle;rounded=0;orthogonalLoop=1;jettySize=auto;html=1;fontFamily=Helvetica;fontSize=12;fontColor=#ffffff;" edge="1" parent="1" source="wkMzzB-yKLCFpXBGOHoM-19" target="wkMzzB-yKLCFpXBGOHoM-29">
          <mxGeometry relative="1" as="geometry" />
        </mxCell>
        <mxCell id="wkMzzB-yKLCFpXBGOHoM-19" value="&lt;b&gt;Heuristically&lt;/b&gt; find candidate optimal strategy" style="shape=process;whiteSpace=wrap;html=1;backgroundOutline=1;rounded=1;strokeColor=#001DBC;align=center;verticalAlign=middle;fontFamily=Helvetica;fontSize=12;fontColor=#ffffff;fillColor=#0050ef;gradientColor=none;arcSize=8;" vertex="1" parent="1">
          <mxGeometry x="530" y="560" width="120" height="60" as="geometry" />
        </mxCell>
        <mxCell id="wkMzzB-yKLCFpXBGOHoM-21" value="" style="endArrow=classic;startArrow=classic;html=1;rounded=0;fontFamily=Helvetica;fontSize=12;fontColor=#ffffff;exitX=1;exitY=0.5;exitDx=0;exitDy=0;entryX=0.024;entryY=0.629;entryDx=0;entryDy=0;entryPerimeter=0;" edge="1" parent="1" source="wkMzzB-yKLCFpXBGOHoM-15" target="wkMzzB-yKLCFpXBGOHoM-12">
          <mxGeometry width="50" height="50" relative="1" as="geometry">
            <mxPoint x="140" y="540" as="sourcePoint" />
            <mxPoint x="190" y="490" as="targetPoint" />
          </mxGeometry>
        </mxCell>
        <mxCell id="wkMzzB-yKLCFpXBGOHoM-28" style="edgeStyle=orthogonalEdgeStyle;rounded=0;orthogonalLoop=1;jettySize=auto;html=1;entryX=1;entryY=0.5;entryDx=0;entryDy=0;fontFamily=Helvetica;fontSize=12;fontColor=#ffffff;shape=flexArrow;" edge="1" parent="1" source="wkMzzB-yKLCFpXBGOHoM-27" target="wkMzzB-yKLCFpXBGOHoM-19">
          <mxGeometry relative="1" as="geometry" />
        </mxCell>
        <mxCell id="wkMzzB-yKLCFpXBGOHoM-27" value="&lt;b&gt;Classical Merton Problem&lt;/b&gt;" style="ellipse;whiteSpace=wrap;html=1;aspect=fixed;rounded=1;strokeColor=#001DBC;align=center;verticalAlign=middle;fontFamily=Helvetica;fontSize=12;fontColor=#ffffff;fillColor=#0050ef;gradientColor=default;" vertex="1" parent="1">
          <mxGeometry x="700" y="360" width="80" height="80" as="geometry" />
        </mxCell>
        <mxCell id="wkMzzB-yKLCFpXBGOHoM-35" value="" style="edgeStyle=orthogonalEdgeStyle;rounded=0;orthogonalLoop=1;jettySize=auto;html=1;fontFamily=Helvetica;fontSize=12;fontColor=#ffffff;" edge="1" parent="1" source="wkMzzB-yKLCFpXBGOHoM-29" target="wkMzzB-yKLCFpXBGOHoM-34">
          <mxGeometry relative="1" as="geometry" />
        </mxCell>
        <mxCell id="wkMzzB-yKLCFpXBGOHoM-29" value="&lt;b&gt;Theorem&lt;/b&gt;&lt;div&gt;&lt;i&gt;Optimality of candidate proportional investment-consumption strategy over all prop. inv.-cons.&lt;/i&gt;&lt;/div&gt;&lt;div&gt;&lt;i&gt;pairs.&lt;/i&gt;&lt;/div&gt;" style="shape=hexagon;perimeter=hexagonPerimeter2;whiteSpace=wrap;html=1;fixedSize=1;fillColor=#0050ef;strokeColor=#001DBC;fontColor=#ffffff;rounded=1;gradientColor=default;arcSize=8;align=center;verticalAlign=middle;fontFamily=Helvetica;fontSize=12;" vertex="1" parent="1">
          <mxGeometry x="500" y="690" width="290" height="80" as="geometry" />
        </mxCell>
        <mxCell id="wkMzzB-yKLCFpXBGOHoM-34" value="Utility Process is also defined." style="whiteSpace=wrap;html=1;fillColor=#0050ef;strokeColor=#001DBC;fontColor=#ffffff;rounded=1;gradientColor=none;arcSize=8;" vertex="1" parent="1">
          <mxGeometry x="585" y="860" width="120" height="60" as="geometry" />
        </mxCell>
        <mxCell id="wkMzzB-yKLCFpXBGOHoM-42" value="" style="edgeStyle=orthogonalEdgeStyle;rounded=0;orthogonalLoop=1;jettySize=auto;html=1;fontFamily=Helvetica;fontSize=12;fontColor=#ffffff;" edge="1" parent="1">
          <mxGeometry relative="1" as="geometry">
            <mxPoint x="170.00267605633792" y="775" as="sourcePoint" />
            <mxPoint x="170.03084507042252" y="895" as="targetPoint" />
          </mxGeometry>
        </mxCell>
        <mxCell id="wkMzzB-yKLCFpXBGOHoM-38" value="Transformation of&amp;nbsp;&lt;div&gt;Coordinate System&lt;/div&gt;" style="whiteSpace=wrap;html=1;rounded=1;strokeColor=#001DBC;align=center;verticalAlign=middle;fontFamily=Helvetica;fontSize=12;fontColor=#ffffff;fillColor=#0050ef;gradientColor=default;" vertex="1" parent="1">
          <mxGeometry x="111.11" y="710" width="120" height="60" as="geometry" />
        </mxCell>
        <mxCell id="wkMzzB-yKLCFpXBGOHoM-41" value="&lt;b&gt;Theorem&lt;/b&gt;&lt;div&gt;&lt;i&gt;Existence and Uniqueness of Utility Processes for some subclass of consumption processes&lt;/i&gt;&lt;/div&gt;" style="shape=hexagon;perimeter=hexagonPerimeter2;whiteSpace=wrap;html=1;fixedSize=1;rounded=1;strokeColor=#001DBC;align=center;verticalAlign=middle;fontFamily=Helvetica;fontSize=12;fontColor=#ffffff;fillColor=#0050ef;gradientColor=default;" vertex="1" parent="1">
          <mxGeometry x="35.56" y="890" width="271.11" height="80" as="geometry" />
        </mxCell>
        <mxCell id="wkMzzB-yKLCFpXBGOHoM-43" value="&lt;b&gt;Change of Numéraire &lt;/b&gt;lets us get rid of discount factor" style="ellipse;whiteSpace=wrap;html=1;rounded=1;strokeColor=#001DBC;align=center;verticalAlign=middle;fontFamily=Helvetica;fontSize=12;fontColor=#ffffff;fillColor=#0050ef;gradientColor=default;" vertex="1" parent="1">
          <mxGeometry x="-280" y="370" width="180" height="80" as="geometry" />
        </mxCell>
        <mxCell id="wkMzzB-yKLCFpXBGOHoM-44" value="" style="endArrow=classic;html=1;rounded=0;fontFamily=Helvetica;fontSize=12;fontColor=#ffffff;exitX=1;exitY=0.5;exitDx=0;exitDy=0;" edge="1" parent="1" source="wkMzzB-yKLCFpXBGOHoM-43" target="wkMzzB-yKLCFpXBGOHoM-6">
          <mxGeometry width="50" height="50" relative="1" as="geometry">
            <mxPoint x="400" y="740" as="sourcePoint" />
            <mxPoint x="450" y="690" as="targetPoint" />
          </mxGeometry>
        </mxCell>
        <mxCell id="wkMzzB-yKLCFpXBGOHoM-47" value="" style="edgeStyle=orthogonalEdgeStyle;rounded=0;orthogonalLoop=1;jettySize=auto;html=1;fontFamily=Helvetica;fontSize=12;fontColor=#ffffff;shape=flexArrow;" edge="1" parent="1" source="wkMzzB-yKLCFpXBGOHoM-46">
          <mxGeometry relative="1" as="geometry">
            <mxPoint x="170" y="835" as="targetPoint" />
          </mxGeometry>
        </mxCell>
        <mxCell id="wkMzzB-yKLCFpXBGOHoM-46" value="Fixed Point Argument" style="ellipse;shape=cloud;whiteSpace=wrap;html=1;rounded=1;strokeColor=#001DBC;align=center;verticalAlign=middle;fontFamily=Helvetica;fontSize=12;fontColor=#ffffff;fillColor=#0050ef;gradientColor=default;" vertex="1" parent="1">
          <mxGeometry x="360" y="790" width="156.67" height="90" as="geometry" />
        </mxCell>
      </root>
    </mxGraphModel>
  </diagram>
</mxfile>
